<svg width="168" height="32" viewBox="0 0 168 32" fill="none" xmlns="http://www.w3.org/2000/svg">
<path d="M9.125 26.25C8.33333 26.25 7.65625 25.9633 7.09375 25.39C6.53125 24.8175 6.25 24.1354 6.25 23.3438V11.75L3.96875 6.25H2.5C2.14583 6.25 1.84917 6.13 1.61 5.89C1.37 5.65083 1.25 5.35417 1.25 5C1.25 4.64583 1.37 4.34875 1.61 4.10875C1.84917 3.86958 2.14583 3.75 2.5 3.75H4.8125C5.0625 3.75 5.29167 3.82292 5.5 3.96875C5.70833 4.11458 5.86458 4.30208 5.96875 4.53125L7.71875 8.75H26.1875C26.6667 8.75 27.0312 8.94792 27.2812 9.34375C27.5313 9.73958 27.5417 10.1458 27.3125 10.5625L23.75 17.5312C24.8125 17.6979 25.7033 18.1875 26.4225 19C27.1408 19.8125 27.5 20.7708 27.5 21.875C27.5 23.0833 27.0783 24.1146 26.235 24.9688C25.3908 25.8229 24.3646 26.25 23.1562 26.25C21.9271 26.25 20.8908 25.8229 20.0475 24.9688C19.2033 24.1146 18.7812 23.0833 18.7812 21.875C18.7812 21.4583 18.8333 21.0729 18.9375 20.7188C19.0417 20.3646 19.1875 20.0208 19.375 19.6875L15.2812 19.3125L11.5312 24.9375C11.2604 25.3542 10.9113 25.6771 10.4838 25.9062C10.0571 26.1354 9.60417 26.25 9.125 26.25ZM9.15625 23.7188C9.19792 23.7188 9.29167 23.6667 9.4375 23.5625L12.4688 19.0625C11.4479 18.9583 10.6458 18.7133 10.0625 18.3275C9.47917 17.9425 9.04167 17.5417 8.75 17.125V23.375C8.75 23.4792 8.79167 23.5625 8.875 23.625C8.95833 23.6875 9.05208 23.7188 9.15625 23.7188ZM23.125 23.75C23.6667 23.75 24.1146 23.5675 24.4688 23.2025C24.8229 22.8383 25 22.3958 25 21.875C25 21.3333 24.8229 20.8854 24.4688 20.5312C24.1146 20.1771 23.6667 20 23.125 20C22.6042 20 22.1617 20.1771 21.7975 20.5312C21.4325 20.8854 21.25 21.3333 21.25 21.875C21.25 22.3958 21.4325 22.8383 21.7975 23.2025C22.1617 23.5675 22.6042 23.75 23.125 23.75Z" fill="#003E29"/>
<path d="M34.24 9.016H39.592V25H40.744V9.016H46.096V7.96H34.24V9.016ZM45.6006 19.24C45.6006 22.72 48.0246 25.288 51.3126 25.288C54.6006 25.288 57.0246 22.72 57.0246 19.24C57.0246 15.76 54.6006 13.192 51.3126 13.192C48.0246 13.192 45.6006 15.76 45.6006 19.24ZM46.7286 19.24C46.7286 16.288 48.6246 14.2 51.3126 14.2C54.0006 14.2 55.8966 16.288 55.8966 19.24C55.8966 22.192 54.0006 24.28 51.3126 24.28C48.6246 24.28 46.7286 22.192 46.7286 19.24ZM61.0006 25V21.4L63.4726 18.832L67.4566 25H68.7286L64.2166 18.088L68.6806 13.48H67.2646L61.0006 19.936V7.672H59.8966V25H61.0006ZM69.5772 19.24C69.5772 22.72 72.0012 25.288 75.2892 25.288C78.5772 25.288 81.0012 22.72 81.0012 19.24C81.0012 15.76 78.5772 13.192 75.2892 13.192C72.0012 13.192 69.5772 15.76 69.5772 19.24ZM70.7052 19.24C70.7052 16.288 72.6012 14.2 75.2892 14.2C77.9772 14.2 79.8732 16.288 79.8732 19.24C79.8732 22.192 77.9772 24.28 75.2892 24.28C72.6012 24.28 70.7052 22.192 70.7052 19.24ZM93.4971 17.824V15.064H86.9691V10.288H94.7451V7.456H83.8971V25H86.9691V17.824H93.4971ZM99.6494 25.312C101.497 25.312 103.105 24.472 103.609 23.248L103.825 25H106.393V17.8C106.393 14.512 104.425 12.784 101.233 12.784C98.0174 12.784 95.9054 14.464 95.9054 17.032H98.4014C98.4014 15.784 99.3614 15.064 101.089 15.064C102.577 15.064 103.537 15.712 103.537 17.32V17.584L99.9854 17.848C97.1774 18.064 95.5934 19.432 95.5934 21.616C95.5934 23.848 97.1294 25.312 99.6494 25.312ZM100.609 23.104C99.2894 23.104 98.5694 22.576 98.5694 21.496C98.5694 20.536 99.2654 19.936 101.089 19.768L103.561 19.576V20.2C103.561 22.024 102.409 23.104 100.609 23.104ZM108.358 21.4C108.358 23.728 110.23 25.312 113.182 25.312C116.11 25.312 118.15 23.824 118.15 21.424C118.15 19.6 117.142 18.688 115.15 18.232L113.014 17.728C112.006 17.488 111.478 17.056 111.478 16.384C111.478 15.496 112.15 14.968 113.302 14.968C114.43 14.968 115.102 15.616 115.126 16.624H117.91C117.886 14.32 116.086 12.784 113.422 12.784C110.686 12.784 108.718 14.176 108.718 16.504C108.718 18.4 109.75 19.408 111.886 19.888L114.022 20.392C115.078 20.632 115.39 21.064 115.39 21.664C115.39 22.528 114.646 23.08 113.278 23.08C111.934 23.08 111.166 22.432 111.142 21.4H108.358ZM123.307 25V18.52C123.307 16.744 124.387 15.448 126.235 15.448C127.723 15.448 128.707 16.408 128.707 18.4V25H131.635V17.704C131.635 14.632 130.099 12.784 127.171 12.784C125.467 12.784 124.075 13.528 123.331 14.68V7.144H120.379V25H123.307ZM135.976 10.768C136.936 10.768 137.728 9.976 137.728 8.992C137.728 8.008 136.936 7.24 135.976 7.24C134.968 7.24 134.176 8.008 134.176 8.992C134.176 9.976 134.968 10.768 135.976 10.768ZM134.512 25H137.44V13.144H134.512V25ZM139.769 19.048C139.769 22.744 142.433 25.288 146.105 25.288C149.777 25.288 152.441 22.744 152.441 19.048C152.441 15.352 149.777 12.808 146.105 12.808C142.433 12.808 139.769 15.352 139.769 19.048ZM142.697 19.048C142.697 16.888 144.089 15.424 146.105 15.424C148.121 15.424 149.513 16.888 149.513 19.048C149.513 21.208 148.121 22.672 146.105 22.672C144.089 22.672 142.697 21.208 142.697 19.048ZM157.69 25V18.616C157.69 16.696 158.794 15.448 160.594 15.448C162.106 15.448 163.09 16.408 163.09 18.4V25H166.018V17.704C166.018 14.632 164.482 12.784 161.506 12.784C159.898 12.784 158.458 13.48 157.714 14.68L157.474 13.144H154.762V25H157.69Z" fill="black"/>
</svg>
