<svg width="248" height="49" viewBox="0 0 248 49" fill="none" xmlns="http://www.w3.org/2000/svg">
<path d="M12.775 42.75C11.6667 42.75 10.7188 42.3487 9.93125 41.546C9.14375 40.7445 8.75 39.7896 8.75 38.6812V22.45L5.55625 14.75H3.5C3.00417 14.75 2.58883 14.582 2.254 14.246C1.918 13.9112 1.75 13.4958 1.75 13C1.75 12.5042 1.918 12.0882 2.254 11.7522C2.58883 11.4174 3.00417 11.25 3.5 11.25H6.7375C7.0875 11.25 7.40833 11.3521 7.7 11.5562C7.99167 11.7604 8.21042 12.0229 8.35625 12.3438L10.8063 18.25H36.6625C37.3333 18.25 37.8438 18.5271 38.1938 19.0812C38.5438 19.6354 38.5583 20.2042 38.2375 20.7875L33.25 30.5437C34.7375 30.7771 35.9847 31.4625 36.9915 32.6C37.9972 33.7375 38.5 35.0792 38.5 36.625C38.5 38.3167 37.9097 39.7604 36.729 40.9563C35.5472 42.1521 34.1104 42.75 32.4187 42.75C30.6979 42.75 29.2472 42.1521 28.0665 40.9563C26.8847 39.7604 26.2937 38.3167 26.2937 36.625C26.2937 36.0417 26.3667 35.5021 26.5125 35.0063C26.6583 34.5104 26.8625 34.0292 27.125 33.5625L21.3938 33.0375L16.1438 40.9125C15.7646 41.4958 15.2758 41.9479 14.6772 42.2688C14.0799 42.5896 13.4458 42.75 12.775 42.75ZM12.8187 39.2063C12.8771 39.2063 13.0083 39.1333 13.2125 38.9875L17.4563 32.6875C16.0271 32.5417 14.9042 32.1987 14.0875 31.6585C13.2708 31.1195 12.6583 30.5583 12.25 29.975V38.725C12.25 38.8708 12.3083 38.9875 12.425 39.075C12.5417 39.1625 12.6729 39.2063 12.8187 39.2063ZM32.375 39.25C33.1333 39.25 33.7604 38.9945 34.2563 38.4835C34.7521 37.9737 35 37.3542 35 36.625C35 35.8667 34.7521 35.2396 34.2563 34.7437C33.7604 34.2479 33.1333 34 32.375 34C31.6458 34 31.0263 34.2479 30.5165 34.7437C30.0055 35.2396 29.75 35.8667 29.75 36.625C29.75 37.3542 30.0055 37.9737 30.5165 38.4835C31.0263 38.9945 31.6458 39.25 32.375 39.25Z" fill="white"/>
<path d="M47.36 14.024H55.388V38H57.116V14.024H65.144V12.44H47.36V14.024ZM64.4009 29.36C64.4009 34.58 68.0369 38.432 72.9689 38.432C77.9009 38.432 81.5369 34.58 81.5369 29.36C81.5369 24.14 77.9009 20.288 72.9689 20.288C68.0369 20.288 64.4009 24.14 64.4009 29.36ZM66.0929 29.36C66.0929 24.932 68.9369 21.8 72.9689 21.8C77.0009 21.8 79.8449 24.932 79.8449 29.36C79.8449 33.788 77.0009 36.92 72.9689 36.92C68.9369 36.92 66.0929 33.788 66.0929 29.36ZM87.5008 38V32.6L91.2088 28.748L97.1848 38H99.0928L92.3248 27.632L99.0208 20.72H96.8968L87.5008 30.404V12.008H85.8448V38H87.5008ZM100.366 29.36C100.366 34.58 104.002 38.432 108.934 38.432C113.866 38.432 117.502 34.58 117.502 29.36C117.502 24.14 113.866 20.288 108.934 20.288C104.002 20.288 100.366 24.14 100.366 29.36ZM102.058 29.36C102.058 24.932 104.902 21.8 108.934 21.8C112.966 21.8 115.81 24.932 115.81 29.36C115.81 33.788 112.966 36.92 108.934 36.92C104.902 36.92 102.058 33.788 102.058 29.36ZM136.246 27.236V23.096H126.454V15.932H138.118V11.684H121.846V38H126.454V27.236H136.246ZM145.474 38.468C148.246 38.468 150.658 37.208 151.414 35.372L151.738 38H155.59V27.2C155.59 22.268 152.638 19.676 147.85 19.676C143.026 19.676 139.858 22.196 139.858 26.048H143.602C143.602 24.176 145.042 23.096 147.634 23.096C149.866 23.096 151.306 24.068 151.306 26.48V26.876L145.978 27.272C141.766 27.596 139.39 29.648 139.39 32.924C139.39 36.272 141.694 38.468 145.474 38.468ZM146.914 35.156C144.934 35.156 143.854 34.364 143.854 32.744C143.854 31.304 144.898 30.404 147.634 30.152L151.342 29.864V30.8C151.342 33.536 149.614 35.156 146.914 35.156ZM158.537 32.6C158.537 36.092 161.345 38.468 165.773 38.468C170.165 38.468 173.225 36.236 173.225 32.636C173.225 29.9 171.713 28.532 168.725 27.848L165.521 27.092C164.009 26.732 163.217 26.084 163.217 25.076C163.217 23.744 164.225 22.952 165.953 22.952C167.645 22.952 168.653 23.924 168.689 25.436H172.865C172.829 21.98 170.129 19.676 166.133 19.676C162.029 19.676 159.077 21.764 159.077 25.256C159.077 28.1 160.625 29.612 163.829 30.332L167.033 31.088C168.617 31.448 169.085 32.096 169.085 32.996C169.085 34.292 167.969 35.12 165.917 35.12C163.901 35.12 162.749 34.148 162.713 32.6H158.537ZM180.961 38V28.28C180.961 25.616 182.581 23.672 185.353 23.672C187.585 23.672 189.061 25.112 189.061 28.1V38H193.453V27.056C193.453 22.448 191.149 19.676 186.757 19.676C184.201 19.676 182.113 20.792 180.997 22.52V11.216H176.569V38H180.961ZM199.964 16.652C201.404 16.652 202.592 15.464 202.592 13.988C202.592 12.512 201.404 11.36 199.964 11.36C198.452 11.36 197.264 12.512 197.264 13.988C197.264 15.464 198.452 16.652 199.964 16.652ZM197.768 38H202.16V20.216H197.768V38ZM205.654 29.072C205.654 34.616 209.65 38.432 215.158 38.432C220.666 38.432 224.662 34.616 224.662 29.072C224.662 23.528 220.666 19.712 215.158 19.712C209.65 19.712 205.654 23.528 205.654 29.072ZM210.046 29.072C210.046 25.832 212.134 23.636 215.158 23.636C218.182 23.636 220.27 25.832 220.27 29.072C220.27 32.312 218.182 34.508 215.158 34.508C212.134 34.508 210.046 32.312 210.046 29.072ZM232.535 38V28.424C232.535 25.544 234.191 23.672 236.891 23.672C239.159 23.672 240.635 25.112 240.635 28.1V38H245.027V27.056C245.027 22.448 242.723 19.676 238.259 19.676C235.847 19.676 233.687 20.72 232.571 22.52L232.211 20.216H228.143V38H232.535Z" fill="white"/>
</svg>
